<?xml version="1.0" encoding="UTF-8" standalone="no"?> <svg width="64" height="64" viewBox="0 0 64 64" fill="none" xmlns="http://www.w3.org/2000/svg">
<path d="M49 10.59L45.25 3.32C45.126 3.07359 44.9359 2.86646 44.7011 2.72168C44.4663 2.5769 44.1959 2.50016 43.92 2.5H20.08C19.8046 2.5024 19.5351 2.58007 19.3007 2.7246C19.0663 2.86914 18.8758 3.07503 18.75 3.32L15 10.59C13.7368 10.8255 12.5956 11.4952 11.7739 12.4831C10.9522 13.471 10.5015 14.715 10.5 16V48C10.5015 49.285 10.9522 50.529 11.7739 51.5169C12.5956 52.5048 13.7368 53.1745 15 53.41L18.71 60.68C18.8358 60.925 19.0263 61.1309 19.2607 61.2754C19.4951 61.4199 19.7646 61.4976 20.04 61.5H43.92C44.1959 61.4998 44.4663 61.4231 44.7011 61.2783C44.9359 61.1335 45.126 60.9264 45.25 60.68L49 53.41C50.2632 53.1745 51.4044 52.5048 52.2261 51.5169C53.0478 50.529 53.4985 49.285 53.5 48V16C53.4985 14.715 53.0478 13.471 52.2261 12.4831C51.4044 11.4952 50.2632 10.8255 49 10.59V10.59ZM21 5.5H43L45.55 10.5H18.45L21 5.5ZM43 58.5H21L18.45 53.5H45.55L43 58.5ZM50.5 48C50.5 48.663 50.2366 49.2989 49.7678 49.7678C49.2989 50.2366 48.663 50.5 48 50.5H16C15.337 50.5 14.7011 50.2366 14.2322 49.7678C13.7634 49.2989 13.5 48.663 13.5 48V16C13.5 15.337 13.7634 14.7011 14.2322 14.2322C14.7011 13.7634 15.337 13.5 16 13.5H48C48.663 13.5 49.2989 13.7634 49.7678 14.2322C50.2366 14.7011 50.5 15.337 50.5 16V48Z" fill="black"/>
<path d="M44.59 30.4999H38.38C38.1175 30.4987 37.8593 30.5665 37.6312 30.6963C37.4031 30.8262 37.213 31.0136 37.08 31.2399L33.48 37.3599L29.76 22.3599C29.6852 22.0701 29.5254 21.8093 29.3012 21.6111C29.0769 21.4128 28.7985 21.2862 28.5017 21.2475C28.2049 21.2088 27.9033 21.2597 27.6357 21.3938C27.3681 21.5279 27.1467 21.739 27 21.9999L22.28 30.4999H19.41C19.0122 30.4999 18.6307 30.658 18.3494 30.9393C18.0681 31.2206 17.91 31.6021 17.91 31.9999C17.91 32.3977 18.0681 32.7793 18.3494 33.0606C18.6307 33.3419 19.0122 33.4999 19.41 33.4999H23.16C23.4276 33.502 23.6907 33.4315 23.9214 33.2959C24.1521 33.1603 24.3417 32.9647 24.47 32.7299L27.77 26.7999L31.46 41.6499C31.5372 41.9337 31.6956 42.1887 31.9157 42.3837C32.1357 42.5788 32.408 42.7053 32.699 42.7477C32.9899 42.7902 33.287 42.7468 33.5536 42.6229C33.8203 42.4989 34.045 42.2998 34.2 42.0499L39.2 33.4999H44.56C44.9579 33.4999 45.3394 33.3419 45.6207 33.0606C45.902 32.7793 46.06 32.3977 46.06 31.9999C46.06 31.6021 45.902 31.2206 45.6207 30.9393C45.3394 30.658 44.9579 30.4999 44.56 30.4999H44.59Z" fill="black"/>
</svg>
